<svg xmlns="http://www.w3.org/2000/svg" viewBox="0 0 800 200" fill="none">
  <defs>
    <linearGradient id="bg" x1="0%" y1="0%" x2="100%" y2="100%">
      <stop offset="0%" style="stop-color:#4f46e5"/>
      <stop offset="100%" style="stop-color:#7c3aed"/>
    </linearGradient>
  </defs>
  <rect width="800" height="200" rx="16" fill="url(#bg)"/>
  <text x="400" y="75" text-anchor="middle" font-family="system-ui, -apple-system, sans-serif" font-size="36" font-weight="bold" fill="white">Google Maps Scraper</text>
  <text x="400" y="115" text-anchor="middle" font-family="system-ui, -apple-system, sans-serif" font-size="18" fill="rgba(255,255,255,0.9)">Extract Business Leads from Google Maps &amp; Bing Maps in Minutes</text>
  <text x="400" y="155" text-anchor="middle" font-family="system-ui, -apple-system, sans-serif" font-size="14" fill="rgba(255,255,255,0.7)">30+ Data Fields · CSV Export · No API Key · Open Source</text>
  <!-- Map pin icon -->
  <path d="M80 60 C80 45, 95 35, 105 35 C115 35, 130 45, 130 60 C130 80, 105 105, 105 105 C105 105, 80 80, 80 60Z" fill="rgba(255,255,255,0.15)"/>
  <circle cx="105" cy="60" r="10" fill="rgba(255,255,255,0.25)"/>
  <!-- Data icon -->
  <rect x="680" y="50" width="40" height="8" rx="4" fill="rgba(255,255,255,0.2)"/>
  <rect x="680" y="65" width="30" height="8" rx="4" fill="rgba(255,255,255,0.15)"/>
  <rect x="680" y="80" width="35" height="8" rx="4" fill="rgba(255,255,255,0.2)"/>
  <rect x="680" y="95" width="25" height="8" rx="4" fill="rgba(255,255,255,0.15)"/>
  <rect x="680" y="110" width="38" height="8" rx="4" fill="rgba(255,255,255,0.2)"/>
</svg>
