<svg xmlns="http://www.w3.org/2000/svg" viewBox="0 0 800 200" fill="none">
  <rect width="800" height="200" rx="16" fill="#fbbf24"/>
  <text x="400" y="75" text-anchor="middle" font-family="system-ui, -apple-system, sans-serif" font-size="36" font-weight="bold" fill="#1a1a1a">Google Maps Scraper</text>
  <text x="400" y="115" text-anchor="middle" font-family="system-ui, -apple-system, sans-serif" font-size="18" fill="#292524">Extract Business Leads from Google Maps &amp; Bing Maps in Minutes</text>
  <text x="400" y="155" text-anchor="middle" font-family="system-ui, -apple-system, sans-serif" font-size="14" fill="#44403c">30+ Data Fields · CSV Export · No API Key · Open Source</text>
  <!-- Map pin icon -->
  <path d="M80 60 C80 45, 95 35, 105 35 C115 35, 130 45, 130 60 C130 80, 105 105, 105 105 C105 105, 80 80, 80 60Z" fill="rgba(0,0,0,0.1)"/>
  <circle cx="105" cy="60" r="10" fill="rgba(0,0,0,0.15)"/>
  <!-- Data icon -->
  <rect x="680" y="50" width="40" height="8" rx="4" fill="rgba(0,0,0,0.12)"/>
  <rect x="680" y="65" width="30" height="8" rx="4" fill="rgba(0,0,0,0.08)"/>
  <rect x="680" y="80" width="35" height="8" rx="4" fill="rgba(0,0,0,0.12)"/>
  <rect x="680" y="95" width="25" height="8" rx="4" fill="rgba(0,0,0,0.08)"/>
  <rect x="680" y="110" width="38" height="8" rx="4" fill="rgba(0,0,0,0.12)"/>
</svg>
